<svg width="331" height="300" viewBox="0 0 331 300" fill="none" xmlns="http://www.w3.org/2000/svg">
<path d="M95.1503 149.834L96.8537 153.741L98.3138 156.728L100.504 162.473L101.721 166.15L103.424 172.355L104.884 177.87L106.101 182.237L107.561 185.914L109.508 189.59L111.941 192.578L114.132 194.876L116.078 196.485L119.729 198.783L123.866 200.391L128.003 201.54L131.166 202H133.356H135.79L140.17 201.54L144.064 201.081L149.174 199.932L155.258 198.093L160.125 196.485L164.505 194.416L168.886 192.118L173.266 189.361L176.916 186.373L178.863 184.075L180.566 181.317L181.783 178.56L182.757 175.802L183 172.815V170.287V166.61L182.27 162.014L181.053 157.647L179.593 153.97L178.133 150.064L176.673 146.157L174.969 142.48L173.509 139.263L170.832 135.586L167.182 132.369L163.532 130.53L159.638 128.692L156.231 127.543L148.201 127.083L141.387 127.543L135.06 128.232L128.003 129.381L122.892 130.53L116.809 131.679L111.941 132.598L108.291 133.058H103.668L98.3138 132.139L93.2035 130.53L89.5532 128.922L85.1729 125.934L81.5226 122.717L77.8723 118.121L74.7088 113.295L72.2753 108.009L70.0851 102.494L67.8949 95.8294L66.9215 91.0034L65.9481 85.9477L65.7048 81.8111V79.0535V76.7554L65.9481 74.6871L66.4348 72.6189L66.9215 71.0102L67.4082 69.6314L67.8949 68.4824L68.625 67.1035L69.3551 65.9545L70.3285 64.5756L71.5452 63.4266L73.2487 61.818L74.7088 60.6689L76.6556 59.2901L80.5492 57.6815L84.1995 56.3026L87.6064 55.3834L92.7167 54.2344L96.1237 53.5449L99.5306 52.8555L103.911 51.9363L108.048 51.2469L111.698 50.3276L114.862 49.6382L117.539 48.9488L119.972 48.2594L121.919 47.3402L124.109 46.1911L125.813 44.8123L127.516 42.9738L129.463 40.2162L130.923 37.2287L131.896 33.7816L132.383 29.6451V26.6576L131.896 23.6701L130.923 19.5336L129.463 15.6268L127.759 12.6394L125.569 9.19226L123.136 6.43458L119.972 3.90671L117.052 2.29807L113.402 0.68942L109.995 0L105.371 0L100.261 0L96.1237 0L91.7433 0L88.3364 0.229807L85.1729 0.68942L82.0093 1.14903L79.3324 1.60865L76.4122 2.29807L73.492 3.21729L70.8152 4.36633L68.625 5.74516L66.4348 7.35381L64.7314 10.1115L63.758 12.8692V16.5461L64.2447 19.9932L65.4614 24.5893L67.1649 29.4152L68.625 33.5518L69.8418 37.2287L70.5718 40.446L70.8152 43.2036V48.2594L69.8418 52.6257L67.8949 56.3026L64.9747 59.2901L61.5678 61.818L57.1875 64.116L51.3471 66.6439C49.8058 67.0269 46.6747 67.7929 46.4801 67.7929C46.2854 67.7929 42.8298 68.559 41.1263 68.942L36.5027 69.6314L31.3923 69.8612L27.012 70.3208L21.1715 71.0102L16.3045 72.3891L11.4375 74.6871L8.76064 76.2958L6.32713 78.364L3.40691 82.041L1.46011 86.1775L0.243351 91.2332L0 94.6803L0 99.0466L0.243351 102.264L0.730053 105.481L1.70346 109.848L3.40691 114.673L5.84043 120.878L8.27394 125.934L10.7074 129.381L13.6277 132.139L16.3045 133.977L19.4681 135.586L22.875 136.505L26.7686 136.965H30.4189L35.7726 136.505L39.6662 136.046L43.0731 135.586L46.7234 134.667L50.8604 133.747L54.9973 133.058L60.1077 132.598H65.4614H70.0851L74.4654 133.288L78.6024 134.437L82.496 136.046L86.3896 138.803L89.5532 141.791L92.23 145.008L95.1503 149.834Z" fill="#F59E0B"/>
<path d="M138.404 223.966L140.145 222.928L143.626 220.852L146.362 219.295L150.092 217.479L165.262 210.991L174.463 207.099L177.696 205.023L181.178 202.428L184.659 199.054L187.395 195.681L189.136 193.086L190.876 189.453L192.368 185.82L193.363 182.965L194.109 179.332L194.358 175.699V172.066V167.914L194.109 164.8L193.612 162.205L192.866 158.832L191.374 154.42L189.384 149.23L186.4 143.002L184.162 139.369L181.426 135.477L178.193 131.584L175.707 129.249L171.728 125.616L167.749 122.761L163.77 120.426L160.288 119.128L157.801 118.35L155.563 117.831L152.828 117.312L150.838 117.052L147.108 116.793H143.875H141.139L137.658 117.052L135.171 117.312L133.182 117.571L131.192 117.831L129.451 118.09L126.964 118.609L124.478 119.128L122.239 119.647L119.753 120.166L117.514 120.426L114.033 120.945L110.551 121.464L106.821 121.983H104.334H101.847L98.3658 121.464L95.3816 120.426L92.8947 119.128L90.1592 117.312L86.6776 113.938L83.6934 110.305L81.4553 106.672L79.4658 102.52L77.2276 97.0706L75.4868 91.8806L74.2434 87.4691L73.4974 84.6146L73 82.0195V79.4245L73.7461 75.7915L75.2382 73.1965L77.4763 70.342L79.4658 68.785L81.4553 67.4875L84.9368 66.19L88.1697 65.152L95.1329 63.3355L100.355 62.2975L105.826 61.519L111.795 61H117.017H120.747L124.975 61.519L129.203 63.076L132.436 64.8925L135.171 67.4875L137.658 70.6015L139.399 73.1965L142.134 78.3865L144.87 83.836L147.108 89.8046L150.838 97.3301L154.568 102.52L158.796 106.932L163.024 109.786L166.505 111.603L169.987 112.9L175.707 114.198L180.929 114.717L187.892 114.976L191.871 114.717L197.342 114.198L204.305 112.9L211.766 111.603L216.491 110.565L220.718 109.527L225.692 108.489L228.925 108.229H232.407L234.645 108.489L238.126 109.527L240.862 110.824L244.095 112.9L247.328 115.495L251.058 120.166L254.291 126.135L257.275 132.622L259.762 139.11L261.005 144.04L261.503 147.933L262 153.382L261.503 158.053L259.264 163.243L257.026 166.098L254.539 168.433L252.301 169.99L249.566 171.288L246.582 172.326L243.1 173.104L239.121 174.142L236.634 174.921L231.661 176.478L226.687 178.294L221.464 180.63L216.739 183.225L213.009 186.079L209.776 188.934L207.041 192.048L204.554 195.681L203.062 199.054L202.067 202.947L201.57 205.801V210.732L202.067 215.922L203.062 221.371L204.554 226.302L207.289 234.087L210.274 242.391L213.258 250.435L215.496 257.961L216.491 262.113L216.988 265.746V269.119V272.493L215.993 276.904L213.507 282.094L210.025 285.987L206.792 288.841L203.311 290.917L197.839 293.772L194.109 295.329L187.643 297.924L180.68 299.481L177.696 299.741L173.966 300H170.236L166.257 299.741L163.521 299.221L159.791 297.665L156.061 295.589L152.435 293.253L147.357 288.582L142.88 282.873L137.907 275.088L134.922 268.6L130.943 260.037L128.954 254.328L127.711 249.657L127.462 247.84L127.213 245.764V243.948V242.131V240.574L127.462 238.498L128.208 236.422L129.203 233.827L130.943 230.973L132.684 228.897L134.176 227.34L138.404 223.966Z" fill="#0891B2"/>
<path d="M256.455 264H260.665L264.876 263.22L269.333 262.179L274.782 260.099L279.735 258.018L284.936 255.417L289.394 252.816L292.861 249.695L295.585 246.053L297.071 241.892L297.814 238.511V235.39L297.566 232.789L296.823 228.627L294.594 222.125L289.394 210.16L284.193 198.976L281.964 192.734L280.726 189.093L279.983 186.232L279.735 183.631V181.03V177.909V175.308L280.478 172.707C280.808 171.84 281.469 170.054 281.469 169.846C281.469 169.638 282.624 167.852 283.202 166.985L285.431 164.124L288.651 161.262L291.87 158.922L295.337 156.841L299.3 155.02L303.51 153.46L307.473 151.899L309.949 151.119L312.921 150.338L315.645 149.818L318.617 149.038L321.094 148.258L323.323 146.957L325.552 145.657L327.285 143.836L328.771 141.755L329.762 139.675L330.505 137.334L331 134.733V131.612L330.752 128.751L330.505 126.67L330.009 124.589L329.266 121.728L328.276 118.607L327.285 115.746L325.552 112.365L323.818 109.243L321.589 105.602L319.112 102.221L316.388 98.8397L314.655 97.019L312.673 95.4584L310.692 93.8979L308.463 92.3373L306.482 91.0368L304.501 89.9964L301.281 89.4762H298.557H296.328L294.347 89.7363L290.632 90.5166L286.174 91.557L281.221 92.5974L274.534 93.3777L270.572 93.8979L265.123 94.4181H260.913H255.96L251.997 93.8979L247.044 93.1176L242.834 91.8171L238.376 90.2565L235.652 88.696L231.937 86.3551L229.708 84.5344L227.479 82.7138L224.755 80.3729L222.774 78.0321L220.297 75.171L218.564 72.5701L216.83 70.2292L215.592 67.3682L213.858 63.9869L211.877 59.8254L208.905 55.4038L206.676 53.0629L204.199 50.462L201.228 48.3812L198.256 46.8207L194.293 45.7803L190.331 45H186.616H182.158H178.691L175.224 45.2601L171.756 45.7803L168.784 46.3005L166.06 46.8207L162.841 47.601L159.869 48.3812L156.897 49.4216L154.668 50.2019L152.687 51.2423L150.705 52.5428L148.724 54.3634L147.486 56.1841L146.248 59.3052L146 62.9466L146.248 65.8076L146.743 68.4086L147.981 72.5701L148.972 75.9513L150.21 79.0724L151.944 82.9739L154.42 87.3955L156.897 91.2969L160.116 94.6781L163.831 97.5392L166.803 99.3599L171.013 100.92L174.976 101.701L180.92 102.221H185.378L189.588 101.701L193.55 101.181C195.284 100.92 198.801 100.4 198.999 100.4C199.197 100.4 201.558 100.053 202.714 99.88L206.181 99.3599L209.4 98.8397L213.115 98.5796H216.83H220.297H224.755L228.222 98.8397L231.937 99.3599L233.918 99.62L235.9 99.88L238.129 100.4L240.11 101.181L242.339 102.221L246.549 104.302L251.502 108.463C252.575 109.59 254.821 111.896 255.217 112.105C255.613 112.313 258.189 116.006 259.427 117.827L262.647 122.508L266.361 130.311L268.59 136.293L270.076 143.056L271.067 148.518V153.98L270.819 158.401L269.581 164.124L267.6 168.805L265.618 171.926L263.637 174.267L261.408 176.348L258.932 177.909L256.703 179.209L253.236 180.509L249.025 181.55L245.311 182.85L241.1 184.411L236.395 185.972L231.194 188.312L227.727 190.133L224.012 192.474L220.05 195.335L216.83 198.716L214.601 202.097L213.115 205.479L212.372 208.6L212.125 212.761L212.372 216.143L212.62 218.483L213.61 222.385L215.592 228.367L218.316 234.349L220.793 239.551L223.517 244.233L226.241 248.394L229.213 252.036L232.68 255.417L237.138 258.538L242.091 261.399L248.035 263.22L252.245 264H256.455Z" fill="#0891B2"/>
</svg>
