<svg width="386" height="380" viewBox="0 0 386 380" fill="none" xmlns="http://www.w3.org/2000/svg">
<circle cx="193" cy="190" r="190" fill="#1E293B"/>
<g filter="url(#filter0_dd_305_2)">
<circle cx="193" cy="190" r="125" fill="#334155"/>
</g>
<path d="M91.9374 294.459C91.3118 293.863 90.3883 293.58 89.1668 293.609L73.836 309.699L70.8625 313.098C69.9644 312.463 69.1331 311.782 68.3686 311.053C67.998 310.7 68.0002 310.326 68.3755 309.933L86.2891 291.132C86.7747 290.623 87.0242 290.175 87.0375 289.79C87.0729 289.382 86.8474 288.946 86.3609 288.483C86.9116 287.858 87.5263 287.538 88.205 287.521C88.8836 287.505 89.6052 287.861 90.3697 288.589C91.1342 289.318 91.3144 290.219 90.9103 291.292C92.5422 291.389 93.8331 291.89 94.783 292.795C96.1962 294.141 96.7498 295.509 96.4438 296.897C98.2325 296.921 99.6481 297.43 100.691 298.424C102.984 300.609 103.049 302.837 100.886 305.107L85.4227 321.336C84.9591 321.822 84.7207 322.258 84.7073 322.643C84.7392 323.027 84.9984 323.451 85.4849 323.915C84.2267 325.235 82.8562 325.189 81.3735 323.776C80.1457 322.606 80.2933 321.222 81.8165 319.623L97.942 302.7C98.7808 301.82 98.7485 300.949 97.8449 300.088C97.1268 299.404 96.2485 299.119 95.2101 299.235L79.8131 315.394L76.8396 318.793C75.9415 318.158 75.1102 317.477 74.3457 316.748C73.975 316.395 73.9773 316.022 74.3526 315.628L92.0344 297.071C92.8732 296.191 92.8409 295.32 91.9374 294.459Z" fill="#F59E0B"/>
<path d="M93.2768 326.967L101.654 315.136C102.578 313.83 103.704 313.098 105.032 312.94C106.359 312.782 107.715 313.193 109.099 314.173C110.483 315.153 111.313 316.251 111.59 317.466C111.893 318.7 111.582 319.97 110.657 321.276L102.28 333.106C101.356 334.412 100.217 335.135 98.8632 335.274C97.5358 335.432 96.1801 335.021 94.7959 334.041C93.4117 333.061 92.5814 331.964 92.3048 330.748C92.0282 329.533 92.3522 328.272 93.2768 326.967ZM104.703 317.06L96.2149 329.047C95.9005 329.491 95.776 329.971 95.8414 330.488C95.9253 330.979 96.1761 331.372 96.594 331.668C97.038 331.982 97.5053 332.098 97.996 332.014C98.5052 331.904 98.9169 331.627 99.2313 331.183L107.719 319.195C108.033 318.751 108.149 318.284 108.065 317.793C107.999 317.277 107.745 316.861 107.301 316.547C106.883 316.251 106.419 316.158 105.91 316.268C105.419 316.352 105.017 316.616 104.703 317.06Z" fill="#F59E0B"/>
<path d="M121.56 315.566C122.02 314.724 122.363 313.799 122.586 312.79C123.674 312.802 124.695 313.069 125.65 313.591C126.211 313.898 126.377 314.262 126.146 314.683L121.355 323.442C122.624 323.188 123.778 323.345 124.817 323.914C125.856 324.482 126.506 325.294 126.768 326.349C127.057 327.419 126.849 328.6 126.143 329.891L118.748 343.409C118.425 343.998 118.293 344.473 118.351 344.833C118.438 345.209 118.776 345.558 119.365 345.881C118.994 346.626 118.49 347.08 117.854 347.242C117.246 347.42 116.549 347.294 115.763 346.864C114.977 346.434 114.518 345.873 114.386 345.181C114.282 344.504 114.53 343.618 115.129 342.523L122.846 328.416C123.353 327.49 123.129 326.766 122.175 326.243C121.389 325.813 120.547 325.918 119.65 326.558L112.324 339.949C111.587 341.297 111.071 342.474 110.776 343.479C109.841 343.187 108.883 342.772 107.9 342.235C107.423 341.974 107.3 341.632 107.53 341.211L121.56 315.566Z" fill="#F59E0B"/>
<path d="M133.338 344.74C132.096 345 131.165 345.901 130.544 347.445C129.936 348.96 130.092 349.902 131.012 350.272C131.962 350.653 132.919 350.417 133.883 349.563L136.049 344.174L133.338 344.74ZM139.502 330.818C142.827 332.155 143.9 334.293 142.718 337.232L137.027 351.395C136.776 352.019 136.701 352.506 136.802 352.857C136.932 353.22 137.309 353.526 137.932 353.777C137.652 354.561 137.205 355.071 136.593 355.308C136.01 355.556 135.318 355.52 134.516 355.197C133.269 354.696 132.697 353.932 132.799 352.904C131.509 353.454 130.24 353.479 128.993 352.978C127.746 352.477 126.942 351.602 126.582 350.354C126.221 349.105 126.363 347.679 127.008 346.076C127.986 343.641 129.75 342.212 132.3 341.788L137.32 341.012L139.253 336.202C139.754 334.955 139.411 334.092 138.223 333.615C137.065 333.15 136.205 333.615 135.645 335.01L135.054 336.48L134.346 338.627C133.925 338.561 133.506 338.445 133.09 338.278C132.704 338.122 132.357 337.914 132.048 337.652C131.407 337.187 131.188 336.703 131.391 336.198L132.859 332.546C133.336 331.358 134.166 330.623 135.349 330.339C136.574 330.038 137.958 330.198 139.502 330.818Z" fill="#F59E0B"/>
<path d="M150.103 355.707C149.726 357.229 149.519 358.53 149.483 359.608C148.52 359.502 147.495 359.314 146.408 359.044C145.88 358.914 145.674 358.615 145.789 358.149L150.361 339.699C150.523 339.047 150.514 338.55 150.335 338.209C150.186 337.876 149.786 337.628 149.134 337.467C149.303 336.651 149.659 336.08 150.201 335.753C150.775 335.434 151.559 335.397 152.553 335.643C153.578 335.897 154.173 336.556 154.338 337.619C155.54 336.894 156.808 336.698 158.144 337.029C159.51 337.367 160.385 338.227 160.768 339.608C162.125 338.658 163.439 338.341 164.713 338.656C166.018 338.98 166.915 339.614 167.406 340.56C167.897 341.506 167.966 342.693 167.612 344.122L163.906 359.078C163.744 359.73 163.737 360.223 163.886 360.556C164.065 360.897 164.481 361.149 165.133 361.31C164.964 362.126 164.592 362.693 164.019 363.012C163.476 363.339 162.77 363.395 161.9 363.18C161.031 362.964 160.444 362.539 160.14 361.903C159.867 361.275 159.88 360.355 160.181 359.144L164.048 343.536C164.302 342.511 163.947 341.879 162.985 341.64C162.146 341.433 161.374 341.752 160.67 342.6L156.999 357.416C156.622 358.938 156.415 360.238 156.378 361.317C155.416 361.21 154.391 361.022 153.304 360.753C152.776 360.622 152.569 360.324 152.685 359.858L157.152 341.827C157.406 340.802 157.052 340.17 156.089 339.932C155.25 339.724 154.479 340.044 153.774 340.891L150.103 355.707Z" fill="#F59E0B"/>
<path d="M176.969 360.979C176.839 362.542 176.842 363.859 176.978 364.93C176.01 364.978 174.969 364.955 173.852 364.863C173.31 364.817 173.059 364.556 173.099 364.077L174.674 345.135C174.729 344.465 174.641 343.976 174.41 343.668C174.211 343.362 173.776 343.182 173.107 343.126C173.144 342.294 173.404 341.674 173.887 341.264C174.403 340.858 175.171 340.697 176.191 340.782C177.244 340.869 177.936 341.424 178.269 342.447C179.339 341.541 180.56 341.145 181.932 341.259C183.335 341.375 184.335 342.085 184.934 343.387C186.121 342.233 187.369 341.711 188.676 341.819C190.016 341.931 191.003 342.414 191.638 343.27C192.274 344.125 192.53 345.287 192.408 346.754L191.132 362.109C191.076 362.778 191.148 363.266 191.348 363.571C191.579 363.88 192.029 364.062 192.699 364.117C192.662 364.949 192.386 365.568 191.87 365.975C191.387 366.384 190.698 366.552 189.805 366.478C188.913 366.403 188.265 366.077 187.864 365.497C187.494 364.921 187.361 364.011 187.465 362.767L188.797 346.742C188.884 345.69 188.434 345.123 187.445 345.04C186.584 344.969 185.873 345.408 185.313 346.356L184.048 361.568C183.919 363.13 183.921 364.447 184.057 365.518C183.09 365.566 182.048 365.544 180.932 365.451C180.39 365.406 180.139 365.144 180.178 364.666L181.717 346.154C181.805 345.101 181.354 344.534 180.366 344.452C179.505 344.38 178.794 344.819 178.233 345.768L176.969 360.979Z" fill="#F59E0B"/>
<path d="M206.683 346.753C206.649 346.114 206.431 345.629 206.029 345.298C205.625 344.935 205.136 344.769 204.56 344.8C203.378 344.863 202.813 345.39 202.866 346.38L203.232 353.234L205.441 351.386C206.392 350.598 206.806 349.054 206.683 346.753ZM200.08 361.718L199.279 346.716C199.112 343.584 200.866 341.92 204.54 341.724C208.247 341.526 210.194 343.185 210.382 346.7C210.457 348.106 210.27 349.414 209.822 350.623C209.374 351.833 208.719 352.765 207.856 353.42L203.424 356.829L203.657 361.191C203.728 362.533 204.387 363.171 205.633 363.104C206.912 363.036 207.511 362.251 207.43 360.749L207.372 359.647L207.108 357.402C207.518 357.284 207.931 357.214 208.346 357.191C208.793 357.168 209.212 357.209 209.603 357.317C210.38 357.467 210.783 357.814 210.812 358.358L210.996 361.809C211.064 363.087 210.607 364.121 209.623 364.91C208.67 365.666 207.363 366.088 205.701 366.177C202.122 366.368 200.248 364.882 200.08 361.718Z" fill="#F59E0B"/>
<path d="M223.744 343.07L221.899 343.384C221.362 343.476 220.95 343.725 220.662 344.131C220.401 344.5 220.316 344.953 220.407 345.489L222.786 359.448C222.975 360.552 223.526 361.026 224.441 360.87C224.914 360.789 225.326 360.54 225.677 360.123C226.054 359.67 226.302 359.222 226.422 358.779L223.744 343.07ZM222.179 333.89C222.018 332.944 221.712 332.006 221.261 331.076C222.122 330.41 223.088 329.986 224.161 329.803C224.791 329.696 225.147 329.878 225.228 330.352L230.059 358.695C230.172 359.357 230.363 359.812 230.633 360.058C230.933 360.299 231.415 360.363 232.077 360.25C232.249 361.065 232.135 361.733 231.738 362.255C231.371 362.772 230.762 363.103 229.91 363.249C228.649 363.464 227.761 363.112 227.247 362.193C226.436 363.338 225.415 364.015 224.185 364.225C222.955 364.434 221.891 364.194 220.994 363.502C220.092 362.78 219.509 361.646 219.246 360.1L216.89 346.283C216.622 344.706 216.901 343.392 217.728 342.342C218.556 341.292 219.805 340.625 221.477 340.34L223.228 340.041L222.179 333.89Z" fill="#F59E0B"/>
<path d="M244.294 338.402L242.039 332.327C241.482 330.827 241.558 329.468 242.266 328.249C242.974 327.03 244.183 326.104 245.893 325.469C247.633 324.823 249.158 324.701 250.468 325.102C251.766 325.473 252.644 326.274 253.1 327.504L255.172 333.084C255.372 333.624 255.121 334.144 254.419 334.643C254.044 334.919 253.646 335.135 253.226 335.291C252.806 335.447 252.369 335.558 251.916 335.624C251.739 334.87 251.5 334.089 251.199 333.279L249.779 329.454C249.568 328.884 249.211 328.521 248.71 328.366C248.197 328.181 247.626 328.205 246.996 328.439C246.366 328.673 245.917 329.027 245.65 329.502C245.401 329.935 245.383 330.437 245.594 331.007L247.549 336.272C247.938 337.322 248.556 337.929 249.402 338.093L255.308 339.382C256.97 339.721 258.124 340.76 258.77 342.5L261.075 348.71C261.632 350.21 261.541 351.575 260.803 352.805C260.065 354.035 258.826 354.973 257.086 355.619C255.376 356.253 253.856 356.391 252.528 356.03C251.188 355.64 250.29 354.83 249.834 353.6L247.762 348.02C247.562 347.48 247.813 346.96 248.515 346.461C248.89 346.185 249.288 345.969 249.708 345.813C250.128 345.657 250.565 345.546 251.018 345.48C251.195 346.234 251.434 347.015 251.735 347.825L253.155 351.65C253.355 352.19 253.727 352.547 254.269 352.722C254.812 352.896 255.398 352.866 256.028 352.632C256.658 352.398 257.107 352.044 257.374 351.569C257.672 351.083 257.72 350.57 257.52 350.03L255.632 344.945C255.198 343.775 254.481 343.085 253.482 342.876L247.559 341.542C246.04 341.218 244.951 340.172 244.294 338.402Z" fill="#F59E0B"/>
<path d="M271.824 339.102C271.209 340.213 271.283 341.507 272.047 342.985C272.796 344.435 273.612 344.932 274.493 344.477C275.403 344.007 275.849 343.128 275.832 341.84L273.166 336.68L271.824 339.102ZM265.309 325.342C268.493 323.697 270.812 324.281 272.266 327.096L279.273 340.657C279.581 341.254 279.901 341.629 280.232 341.782C280.592 341.92 281.07 341.835 281.667 341.527C282.077 342.251 282.172 342.923 281.951 343.541C281.759 344.145 281.279 344.645 280.512 345.041C279.317 345.658 278.365 345.592 277.654 344.843C277.228 346.18 276.418 347.156 275.224 347.773C274.03 348.39 272.842 348.428 271.661 347.885C270.481 347.342 269.494 346.304 268.7 344.768C267.496 342.437 267.566 340.168 268.911 337.96L271.602 333.652L269.222 329.047C268.605 327.853 267.728 327.55 266.591 328.137C265.482 328.71 265.273 329.664 265.963 331.001L266.69 332.408L267.854 334.346C267.528 334.622 267.167 334.863 266.769 335.069C266.399 335.26 266.014 335.387 265.614 335.449C264.844 335.631 264.334 335.48 264.084 334.997L262.277 331.5C261.69 330.363 261.675 329.254 262.233 328.173C262.805 327.049 263.83 326.106 265.309 325.342Z" fill="#F59E0B"/>
<path d="M273.612 314.031C273.212 313.413 272.56 312.672 271.658 311.808C272.185 310.857 272.906 310.085 273.819 309.494C274.356 309.146 274.755 309.174 275.016 309.576L290.644 333.71C291.009 334.275 291.364 334.617 291.709 334.737C292.08 334.839 292.548 334.708 293.112 334.343C293.591 335.024 293.751 335.682 293.591 336.319C293.459 336.939 293.016 337.492 292.264 337.979C291.512 338.466 290.8 338.603 290.129 338.39C289.484 338.16 288.822 337.521 288.144 336.473L273.612 314.031Z" fill="#F59E0B"/>
<path d="M299.208 321.63C298.82 322.839 299.144 324.094 300.181 325.395C301.197 326.672 302.094 327.002 302.87 326.384C303.671 325.746 303.938 324.797 303.671 323.537L300.053 318.993L299.208 321.63ZM290.143 309.397C292.947 307.165 295.336 307.288 297.309 309.766L306.816 321.708C307.235 322.234 307.621 322.539 307.976 322.625C308.356 322.691 308.808 322.515 309.334 322.096C309.877 322.727 310.101 323.367 310.004 324.017C309.933 324.646 309.559 325.23 308.883 325.768C307.832 326.605 306.884 326.726 306.041 326.129C305.883 327.523 305.278 328.638 304.227 329.475C303.175 330.313 302.018 330.58 300.754 330.277C299.49 329.974 298.32 329.147 297.244 327.795C295.61 325.742 295.238 323.502 296.128 321.076L297.931 316.327L294.702 312.271C293.865 311.22 292.945 311.093 291.944 311.89C290.968 312.667 290.948 313.644 291.885 314.821L292.871 316.06L294.389 317.736C294.123 318.07 293.815 318.376 293.465 318.655C293.139 318.915 292.787 319.114 292.406 319.253C291.686 319.581 291.156 319.532 290.818 319.107L288.366 316.027C287.569 315.026 287.339 313.941 287.676 312.772C288.019 311.559 288.841 310.434 290.143 309.397Z" fill="#F59E0B"/>
<path d="M295.771 297.122C295.089 296.447 294.294 295.863 293.386 295.371C293.697 294.328 294.235 293.42 295 292.646C295.45 292.191 295.846 292.133 296.187 292.47L303.285 299.491C303.391 298.201 303.861 297.135 304.693 296.293C305.526 295.451 306.485 295.05 307.572 295.089C308.681 295.106 309.758 295.632 310.805 296.667L321.76 307.502C322.237 307.975 322.657 308.233 323.02 308.276C323.404 308.296 323.833 308.068 324.306 307.59C324.92 308.152 325.217 308.762 325.198 309.418C325.202 310.051 324.888 310.687 324.258 311.324C323.628 311.961 322.962 312.247 322.26 312.183C321.581 312.096 320.798 311.614 319.91 310.737L308.478 299.429C307.727 298.686 306.969 298.702 306.204 299.475C305.574 300.112 305.443 300.95 305.811 301.989L316.663 312.723C317.755 313.803 318.744 314.624 319.629 315.184C319.091 316.002 318.428 316.809 317.64 317.605C317.257 317.992 316.896 318.017 316.554 317.679L295.771 297.122Z" fill="#F59E0B"/>
<g clip-path="url(#clip0_305_2)">
<path d="M152.169 190.401L153.157 192.732L154.003 194.514L155.273 197.942L155.979 200.136L156.966 203.838L157.813 207.129L158.519 209.735L159.365 211.929L160.494 214.122L161.905 215.905L163.175 217.276L164.303 218.236L166.42 219.607L168.819 220.567L171.218 221.252L173.052 221.527H174.321H175.733L178.272 221.252L180.53 220.978L183.493 220.293L187.02 219.195L189.842 218.236L192.382 217.002L194.922 215.63L197.462 213.985L199.578 212.203L200.707 210.831L201.694 209.186L202.4 207.541L202.965 205.895L203.105 204.113V202.605V200.411L202.682 197.668L201.977 195.063L201.13 192.869L200.284 190.538L199.437 188.207L198.449 186.013L197.602 184.094L196.05 181.9L193.934 179.98L191.818 178.883L189.56 177.786L187.584 177.101L182.929 176.826L178.978 177.101L175.309 177.512L171.218 178.197L168.254 178.883L164.727 179.568L161.905 180.117L159.788 180.391H157.108L154.003 179.843L151.04 178.883L148.924 177.923L146.384 176.141L144.268 174.221L142.151 171.479L140.317 168.599L138.906 165.445L137.636 162.155L136.366 158.178L135.802 155.299L135.237 152.282L135.096 149.814V148.169V146.797L135.237 145.563L135.52 144.329L135.802 143.369L136.084 142.547L136.366 141.861L136.79 141.038L137.213 140.353L137.777 139.53L138.483 138.845L139.47 137.885L140.317 137.199L141.446 136.376L143.703 135.417L145.82 134.594L147.795 134.045L150.758 133.36L152.734 132.948L154.709 132.537L157.249 131.989L159.647 131.577L161.764 131.029L163.598 130.617L165.15 130.206L166.561 129.795L167.69 129.246L168.96 128.561L169.948 127.738L170.935 126.641L172.064 124.996L172.911 123.213L173.475 121.156L173.757 118.688V116.906L173.475 115.123L172.911 112.655L172.064 110.324L171.076 108.542L169.806 106.485L168.396 104.839L166.561 103.331L164.868 102.371L162.752 101.411L160.776 101H158.095H155.132H152.734H150.194L148.218 101.137L146.384 101.411L144.55 101.686L142.998 101.96L141.305 102.371L139.611 102.92L138.059 103.605L136.79 104.428L135.52 105.388L134.532 107.033L133.968 108.679V110.873L134.25 112.929L134.955 115.672L135.943 118.551L136.79 121.019L137.495 123.213L137.918 125.133L138.059 126.778V129.795L137.495 132.4L136.366 134.594L134.673 136.376L132.698 137.885L130.158 139.256L126.772 140.764C125.878 140.993 124.063 141.45 123.95 141.45C123.837 141.45 121.833 141.907 120.845 142.135L118.165 142.547L115.202 142.684L112.662 142.958L109.275 143.369L106.454 144.192L103.632 145.563L102.08 146.523L100.669 147.757L98.9754 149.951L97.8466 152.419L97.1411 155.436L97 157.493V160.098L97.1411 162.018L97.4233 163.937L97.9877 166.543L98.9754 169.422L100.386 173.124L101.797 176.141L103.208 178.197L104.901 179.843L106.454 180.94L108.288 181.9L110.263 182.448L112.521 182.722H114.637L117.741 182.448L119.999 182.174L121.974 181.9L124.091 181.351L126.489 180.802L128.888 180.391L131.851 180.117H134.955H137.636L140.176 180.528L142.575 181.214L144.832 182.174L147.09 183.819L148.924 185.602L150.476 187.521L152.169 190.401Z" fill="#F59E0B"/>
<path d="M177.248 234.633L178.258 234.014L180.276 232.775L181.862 231.846L184.025 230.762L192.821 226.891L198.156 224.569L200.03 223.33L202.049 221.782L204.067 219.769L205.654 217.756L206.663 216.208L207.672 214.04L208.537 211.873L209.114 210.169L209.547 208.001L209.691 205.834V203.666V201.189L209.547 199.331L209.258 197.782L208.826 195.77L207.961 193.137L206.807 190.041L205.077 186.325L203.779 184.157L202.193 181.835L200.318 179.512L198.877 178.119L196.57 175.951L194.263 174.247L191.956 172.854L189.937 172.08L188.495 171.616L187.197 171.306L185.611 170.996L184.458 170.841L182.295 170.687H180.42H178.834L176.816 170.841L175.374 170.996L174.22 171.151L173.067 171.306L172.057 171.46L170.615 171.77L169.174 172.08L167.876 172.389L166.434 172.699L165.136 172.854L163.118 173.164L161.099 173.474L158.936 173.783H157.494H156.052L154.034 173.474L152.303 172.854L150.861 172.08L149.275 170.996L147.257 168.983L145.526 166.815L144.229 164.648L143.075 162.17L141.777 158.919L140.768 155.822L140.047 153.19L139.615 151.487L139.326 149.938V148.39L139.759 146.222L140.624 144.674L141.922 142.971L143.075 142.042L144.229 141.268L146.247 140.493L148.122 139.874L152.159 138.79L155.187 138.171L158.359 137.706L161.82 137.397H164.848H167.01L169.462 137.706L171.913 138.635L173.788 139.719L175.374 141.268L176.816 143.126L177.825 144.674L179.411 147.771L180.997 151.022L182.295 154.583L184.458 159.074L186.62 162.17L189.072 164.803L191.523 166.506L193.541 167.59L195.56 168.364L198.877 169.138L201.905 169.448L205.942 169.602L208.249 169.448L211.421 169.138L215.458 168.364L219.784 167.59L222.524 166.97L224.975 166.351L227.859 165.732L229.733 165.577H231.752L233.05 165.732L235.068 166.351L236.655 167.125L238.529 168.364L240.404 169.912L242.566 172.699L244.441 176.261L246.171 180.131L247.613 184.002L248.334 186.944L248.622 189.267L248.911 192.518L248.622 195.305L247.324 198.402L246.027 200.105L244.585 201.498L243.287 202.427L241.701 203.202L239.971 203.821L237.952 204.285L235.645 204.905L234.203 205.37L231.32 206.299L228.436 207.382L225.407 208.776L222.668 210.324L220.505 212.027L218.63 213.731L217.045 215.589L215.603 217.756L214.738 219.769L214.161 222.092L213.873 223.795V226.737L214.161 229.833L214.738 233.085L215.603 236.027L217.188 240.672L218.919 245.627L220.649 250.426L221.947 254.917L222.524 257.394L222.812 259.562V261.574V263.588L222.235 266.219L220.794 269.316L218.775 271.639L216.9 273.342L214.882 274.581L211.709 276.284L209.547 277.213L205.798 278.761L201.76 279.69L200.03 279.845L197.867 280H195.705L193.398 279.845L191.811 279.535L189.649 278.607L187.486 277.368L185.384 275.974L182.439 273.187L179.843 269.781L176.96 265.136L175.229 261.265L172.922 256.155L171.769 252.749L171.048 249.962L170.904 248.878L170.76 247.639V246.556V245.472V244.543L170.904 243.304L171.336 242.065L171.913 240.517L172.922 238.814L173.932 237.575L174.797 236.646L177.248 234.633Z" fill="#0891B2"/>
<path d="M245.695 258.52H248.137L250.578 258.055L253.162 257.433L256.322 256.192L259.193 254.951L262.209 253.399L264.794 251.847L266.804 249.985L268.384 247.812L269.245 245.329L269.676 243.312V241.449L269.532 239.897L269.101 237.414L267.809 233.535L264.794 226.395L261.778 219.722L260.486 215.998L259.768 213.825L259.337 212.118L259.193 210.566V209.015V207.152V205.6L259.624 204.049C259.816 203.531 260.199 202.466 260.199 202.341C260.199 202.217 260.869 201.152 261.204 200.634L262.496 198.927L264.363 197.22L266.23 195.823L268.24 194.582L270.538 193.495L272.979 192.564L275.276 191.633L276.712 191.168L278.435 190.702L280.015 190.391L281.738 189.926L283.174 189.461L284.466 188.684L285.759 187.909L286.764 186.822L287.625 185.58L288.2 184.339L288.631 182.943L288.918 181.391V179.528L288.774 177.821L288.631 176.58L288.343 175.338L287.912 173.631L287.338 171.769L286.764 170.062L285.759 168.044L284.753 166.182L283.461 164.009L282.025 161.992L280.445 159.974L279.441 158.888L278.291 157.957L277.143 157.026L275.85 156.095L274.702 155.319L273.553 154.698L271.686 154.387H270.107H268.814L267.666 154.543L265.512 155.008L262.927 155.629L260.055 156.25L256.178 156.715L253.881 157.026L250.721 157.336H248.28H245.408L243.111 157.026L240.239 156.56L237.798 155.784L235.213 154.853L233.634 153.922L231.48 152.525L230.187 151.439L228.895 150.353L227.315 148.956L226.167 147.559L224.731 145.852L223.726 144.3L222.72 142.903L222.003 141.196L220.997 139.179L219.849 136.696L218.125 134.058L216.833 132.661L215.397 131.109L213.674 129.867L211.951 128.936L209.653 128.316L207.356 127.85H205.202H202.617H200.607L198.597 128.005L196.586 128.316L194.863 128.626L193.283 128.936L191.417 129.402L189.694 129.867L187.971 130.488L186.678 130.954L185.53 131.575L184.38 132.351L183.232 133.437L182.514 134.523L181.796 136.385L181.652 138.558L181.796 140.265L182.083 141.817L182.801 144.3L183.376 146.318L184.093 148.18L185.099 150.508L186.534 153.146L187.971 155.474L189.837 157.491L191.991 159.198L193.714 160.285L196.155 161.216L198.453 161.682L201.899 161.992H204.484L206.925 161.682L209.222 161.371C210.228 161.216 212.267 160.905 212.382 160.905C212.497 160.905 213.866 160.698 214.536 160.595L216.546 160.285L218.412 159.974L220.566 159.819H222.72H224.731H227.315L229.326 159.974L231.48 160.285L232.628 160.44L233.777 160.595L235.07 160.905L236.218 161.371L237.511 161.992L239.952 163.234L242.824 165.716C243.446 166.389 244.748 167.765 244.978 167.889C245.207 168.013 246.701 170.217 247.419 171.303L249.286 174.096L251.439 178.752L252.732 182.321L253.593 186.357L254.168 189.616V192.875L254.024 195.513L253.306 198.927L252.157 201.72L251.008 203.583L249.86 204.979L248.567 206.221L247.132 207.152L245.839 207.928L243.829 208.704L241.387 209.325L239.234 210.101L236.792 211.032L234.064 211.963L231.049 213.359L229.039 214.446L226.885 215.843L224.587 217.55L222.72 219.567L221.428 221.585L220.566 223.602L220.136 225.465L219.992 227.947L220.136 229.965L220.279 231.362L220.853 233.69L222.003 237.259L223.582 240.828L225.018 243.932L226.598 246.726L228.177 249.208L229.9 251.381L231.91 253.399L234.495 255.261L237.367 256.968L240.813 258.055L243.254 258.52H245.695Z" fill="#0891B2"/>
</g>
<path d="M48.2454 152.914L46.8419 151.756L48.5829 146.26L50.3969 146.122L48.2454 152.914ZM51.0665 155.184L49.656 154.049L52.1967 146.028L54.0248 145.845L51.0665 155.184ZM53.8877 157.455L52.4771 156.319L55.8176 145.773L57.6386 145.613L53.8877 157.455ZM54.1715 171.927L53.6194 173.67L21.2543 147.315L21.8064 145.572L63.4356 142.679L62.8907 144.4L23.6977 147.13L54.1715 171.927ZM27.5821 148.139L29.9278 147.874L55.2614 168.486L54.7164 170.206L27.5821 148.139ZM32.3935 147.696L34.8745 147.548L56.3654 165L55.8134 166.743L32.3935 147.696ZM37.3554 147.399L39.881 147.265L57.4553 161.56L56.9104 163.28L37.3554 147.399ZM66.7265 132.29L66.1745 134.032L24.5453 136.925L25.0902 135.205L66.7265 132.29ZM23.9932 138.668L65.6296 135.753L65.0846 137.473L23.4483 140.388L23.9932 138.668ZM22.8963 142.131L64.5326 139.216L63.9806 140.959L22.3513 143.852L22.8963 142.131Z" fill="#0891B2"/>
<path d="M65.6216 106.292L69.8521 100.529C70.6843 99.3959 71.0516 98.1828 70.9541 96.8899C70.8565 95.5971 70.1905 94.4976 68.9562 93.5914C67.999 92.8886 66.8374 92.6755 65.4714 92.9519C64.1054 93.2284 63.034 93.8956 62.2573 94.9536L55.2666 104.475L75.6705 119.455L74.6718 120.816L52.9076 104.837L60.897 93.9549C61.9604 92.5065 63.3998 91.6152 65.2153 91.281C67.0399 90.9343 68.6198 91.251 69.9549 92.2311C71.5545 93.4055 72.4445 94.8731 72.625 96.6338C72.7928 98.3853 72.322 100.017 71.2123 101.528L66.9819 107.29L65.6216 106.292ZM68.3421 108.289L72.5726 102.527C73.9411 100.663 74.4984 98.6101 74.2442 96.3688C73.9901 94.1276 72.8932 92.2949 70.9536 90.8709C69.2532 89.6225 67.2614 89.2069 64.978 89.624C62.6821 90.0318 60.8683 91.1426 59.5368 92.9562L50.5487 105.199L73.6732 122.176L72.6745 123.536L48.1898 105.56L58.1765 91.9576C59.7855 89.766 61.9673 88.4312 64.7219 87.9531C67.4639 87.4657 69.8741 87.9849 71.9522 89.5106C74.2193 91.1751 75.5231 93.3728 75.8635 96.1039C76.2131 98.8223 75.5696 101.296 73.9329 103.526L69.7024 109.288L68.3421 108.289ZM71.0626 110.286L75.2931 104.524C76.5415 102.824 77.2943 100.954 77.5516 98.9133C77.8182 96.8605 77.5526 94.8725 76.7548 92.9493C75.957 91.0261 74.689 89.4264 72.9509 88.1504C71.3513 86.976 69.5272 86.3055 67.4785 86.1389C65.4391 85.9597 63.4628 86.3018 61.5496 87.1651C59.6331 88.0066 58.0553 89.2712 56.8162 90.9589L45.8308 105.922L71.6758 124.897L70.6772 126.257L43.4719 106.283L55.456 89.9602C56.5101 88.5244 57.8107 87.347 59.3576 86.428C60.9138 85.4965 62.5312 84.8909 64.2097 84.6112C65.8755 84.3224 67.5698 84.3644 69.2925 84.7375C71.0118 85.0887 72.5641 85.7729 73.9496 86.7901C75.5743 87.9829 76.8542 89.3684 77.7891 90.9464C78.724 92.5245 79.2796 94.1439 79.4559 95.8047C79.6197 97.4562 79.4617 99.1235 78.9819 100.807C78.5115 102.477 77.7353 104.049 76.6534 105.523L72.4229 111.285L71.0626 110.286ZM77.6678 116.735L76.6692 118.095L57.6255 104.114L63.6175 95.9523C64.1631 95.2091 64.8631 94.7442 65.7175 94.5573C66.5685 94.3486 67.3152 94.4801 67.9576 94.9517C69.6453 96.1908 69.8234 97.7171 68.4918 99.5308L64.2613 105.293L62.9011 104.294L67.1315 98.5322C67.7973 97.6253 67.7398 96.8852 66.9589 96.3119C66.6818 96.1085 66.3517 96.0697 65.9686 96.1955C65.5855 96.3213 65.2552 96.5731 64.9778 96.9509L59.9844 103.752L77.6678 116.735Z" fill="#0891B2"/>
<path d="M97.7187 72.5389L103.471 68.2956C104.603 67.4608 105.315 66.4118 105.606 65.1484C105.897 63.8851 105.588 62.6373 104.679 61.405C103.975 60.4493 102.929 59.9004 101.542 59.7581C100.156 59.6158 98.9347 59.9342 97.8785 60.7133L88.3723 67.7253L103.398 88.0956L102.04 89.0973L86.0126 67.369L96.8768 59.3553C98.3228 58.2886 99.9622 57.8657 101.795 58.0866C103.64 58.2982 105.054 59.0704 106.037 60.4033C107.215 62.0002 107.629 63.6661 107.277 65.4008C106.917 67.123 105.982 68.5406 104.473 69.6536L98.7204 73.897L97.7187 72.5389ZM99.7221 75.255L105.475 71.0116C107.336 69.6389 108.478 67.8448 108.902 65.6294C109.326 63.4139 108.824 61.338 107.396 59.4016C106.143 57.704 104.365 56.7148 102.061 56.434C99.7478 56.1405 97.6858 56.6616 95.8751 57.9972L83.6529 67.0126L100.682 90.0991L99.3239 91.1008L81.2931 66.6563L94.8734 56.6392C97.0613 55.0253 99.5414 54.3998 102.314 54.7625C105.076 55.1126 107.223 56.3251 108.754 58.3999C110.423 60.6632 111.014 63.1493 110.527 65.858C110.052 68.5574 108.702 70.728 106.477 72.3697L100.724 76.613L99.7221 75.255ZM101.726 77.971L107.478 73.7277C109.176 72.4755 110.451 70.9138 111.303 69.0424C112.168 67.1617 112.506 65.1847 112.316 63.1112C112.126 61.0377 111.392 59.1334 110.112 57.3981C108.934 55.8012 107.391 54.6186 105.485 53.8502C103.591 53.0726 101.603 52.8115 99.5192 53.0667C97.4391 53.3002 95.5566 54.0383 93.8717 55.2812L78.9334 66.3L97.9659 92.1025L96.6079 93.1042L76.5737 65.9437L92.8699 53.9232C94.3034 52.8658 95.8953 52.1285 97.6455 51.7111C99.4084 51.2845 101.133 51.1873 102.818 51.4195C104.495 51.6391 106.1 52.1832 107.634 53.0517C109.171 53.8983 110.449 55.0133 111.47 56.3964C112.666 58.0185 113.476 59.7219 113.899 61.5066C114.323 63.2913 114.371 65.0026 114.046 66.6407C113.711 68.2662 113.064 69.8111 112.106 71.2754C111.16 72.7304 109.951 74.0005 108.48 75.0857L102.727 79.3291L101.726 77.971ZM106.114 86.0922L104.756 87.0939L90.7321 68.0816L98.8802 62.0713C99.6221 61.5241 100.429 61.2883 101.3 61.364C102.175 61.4178 102.848 61.7654 103.321 62.4067C104.564 64.0917 104.28 65.6019 102.47 66.9376L96.7169 71.1809L95.7152 69.8229L101.468 65.5795C102.373 64.9117 102.538 64.188 101.963 63.4084C101.759 63.1318 101.456 62.9965 101.053 63.0027C100.649 63.0089 100.259 63.1511 99.8819 63.4293L93.0918 68.4379L106.114 86.0922Z" fill="#0891B2"/>
<path d="M151.327 48.0049C151.135 47.4264 150.83 47.0996 150.41 47.0245C150.005 46.9445 149.468 47.015 148.801 47.2359L138.476 50.6518L137.946 49.0498L148.271 45.6338C150.704 44.8289 152.256 45.4425 152.929 47.4748C153.307 48.617 153.245 49.5508 152.745 50.276C152.244 51.0012 151.445 51.5454 150.347 51.9086L140.022 55.3246L139.492 53.7225L149.817 50.3065C151.182 49.855 151.685 49.0878 151.327 48.0049ZM142.313 65.2316L140.711 65.7617L131.7 38.5262L144.516 34.2856C145.525 33.9519 146.488 33.9788 147.407 34.3662C148.32 34.7388 148.929 35.385 149.233 36.3047C149.635 37.5211 149.594 38.5142 149.108 39.2839C148.617 40.0388 147.823 40.5978 146.725 40.961L136.4 44.377L135.87 42.7749L146.195 39.3589C147.559 38.9074 148.038 38.066 147.631 36.8348C147.464 36.3304 147.141 36.0011 146.662 35.8469C146.178 35.6778 145.64 35.6914 145.046 35.8877L133.832 39.5982L142.313 65.2316ZM136.93 45.9791L147.255 42.5631C148.723 42.0772 149.817 41.2298 150.536 40.0208C151.266 38.7921 151.365 37.3767 150.835 35.7746C150.408 34.4841 149.501 33.5334 148.114 32.9225C146.742 32.3068 145.366 32.2271 143.986 32.6836L129.567 37.4542L139.109 66.2917L137.506 66.8218L127.435 36.3821L143.456 31.0815C145.281 30.4778 147.089 30.5955 148.881 31.4345C150.682 32.2538 151.868 33.5238 152.437 35.2446C152.884 36.5945 152.955 37.8793 152.651 39.0991C152.362 40.3139 151.774 41.3725 150.887 42.2747C153.491 42.3349 155.215 43.6407 156.059 46.1922C156.727 48.2096 156.594 50.0474 155.662 51.7055C154.724 53.3488 153.306 54.4846 151.407 55.1128L141.083 58.5288L140.552 56.9267L150.877 53.5107C152.346 53.0248 153.439 52.1774 154.159 50.9684C154.888 49.7397 154.987 48.3243 154.457 46.7222C154.099 45.6393 153.397 44.8102 152.35 44.2347C151.304 43.6592 150.01 43.5525 148.467 43.9147C148.324 43.9786 148.096 44.0621 147.785 44.1652L137.46 47.5812L136.93 45.9791ZM155.641 34.1844C156.328 36.2612 156.215 38.3807 155.301 40.5428C157.309 41.6887 158.63 43.2184 159.263 45.132C159.877 46.9863 159.969 48.832 159.54 50.6691C159.121 52.4865 158.28 54.0732 157.017 55.4292C155.764 56.7654 154.247 57.728 152.467 58.317L142.143 61.733L141.613 60.1309L151.937 56.7149C154.251 55.9492 155.984 54.5202 157.135 52.4277C158.281 50.3204 158.456 48.0652 157.661 45.6621C157.377 44.8017 156.84 43.926 156.051 43.0348C155.273 42.1239 154.407 41.5217 153.454 41.228C154.59 39.1405 154.785 36.9693 154.039 34.7145C153.323 32.5487 151.856 30.952 149.64 29.9242C147.419 28.8816 145.181 28.7334 142.926 29.4794L125.303 35.3101L135.904 67.3519L134.302 67.8819L123.171 34.2381L142.396 27.8773C144.161 27.2932 145.96 27.1836 147.792 27.5484C149.635 27.8934 151.263 28.6629 152.679 29.8569C154.089 31.036 155.077 32.4785 155.641 34.1844ZM157.155 40.0282C157.891 37.8261 157.921 35.7015 157.243 33.6544C156.581 31.6518 155.431 29.9668 153.793 28.5994C152.166 27.2123 150.288 26.3113 148.159 25.8964C146.026 25.4667 143.928 25.593 141.866 26.2752L121.039 33.1661L132.7 68.412L131.098 68.9421L118.907 32.094L141.336 24.6731C143.68 23.8977 146.059 23.7523 148.474 24.2369C150.904 24.7167 153.049 25.7517 154.908 27.3419C156.777 28.9124 158.09 30.8398 158.845 33.1243C159.567 35.3049 159.584 37.4222 158.898 39.4762C160.694 40.7747 161.884 42.3066 162.468 44.0719C163.125 46.0597 163.373 48.0021 163.211 49.8991C163.043 51.7813 162.533 53.4724 161.68 54.9726C160.842 56.4679 159.722 57.7847 158.321 58.9229C156.92 60.0612 155.322 60.9273 153.527 61.5211L143.203 64.9371L142.673 63.335L152.997 59.9191C154.555 59.4037 155.95 58.6212 157.183 57.5715C158.41 56.507 159.384 55.2961 160.104 53.9389C160.823 52.5817 161.259 51.088 161.411 49.4578C161.577 47.8227 161.396 46.2041 160.865 44.602C160.63 43.8899 160.177 43.0934 159.507 42.2124C158.847 41.3117 158.063 40.5836 157.155 40.0282Z" fill="#0891B2"/>
<path d="M197.424 41.0469L197.424 22.25H199.112L199.112 41.0469C199.112 42.8281 198.424 44.3594 197.049 45.6406C195.69 46.9219 194.049 47.5625 192.127 47.5625C190.206 47.5625 188.557 46.9219 187.182 45.6406C185.823 44.3594 185.143 42.8281 185.143 41.0469L185.143 22.25H186.831L186.831 41.0469C186.831 42.375 187.346 43.5156 188.377 44.4688C189.424 45.4063 190.674 45.875 192.127 45.875C193.581 45.875 194.823 45.4063 195.854 44.4688C196.901 43.5156 197.424 42.375 197.424 41.0469ZM200.799 41.0469L200.799 22.25L202.487 22.25L202.487 41.0469C202.487 43.7813 201.471 46.1172 199.44 48.0547C197.409 49.9766 194.971 50.9375 192.127 50.9375C189.284 50.9375 186.846 49.9766 184.815 48.0547C182.784 46.1172 181.768 43.7813 181.768 41.0469L181.768 22.25H183.456L183.456 41.0469C183.456 43.3125 184.299 45.25 185.987 46.8594C187.69 48.4531 189.737 49.25 192.127 49.25C194.502 49.25 196.541 48.4531 198.245 46.8594C199.948 45.25 200.799 43.3125 200.799 41.0469ZM204.174 41.0469L204.174 22.25H205.862L205.862 41.0469C205.862 43.4375 205.245 45.6563 204.01 47.7031C202.776 49.7344 201.104 51.3438 198.995 52.5313C196.885 53.7188 194.596 54.3125 192.127 54.3125C189.659 54.3125 187.37 53.7188 185.26 52.5313C183.151 51.3438 181.479 49.7344 180.245 47.7031C179.01 45.6562 178.393 43.4375 178.393 41.0469L178.393 22.25H180.081L180.081 41.0469C180.081 43.125 180.62 45.0547 181.698 46.8359C182.776 48.6172 184.237 50.0313 186.081 51.0781C187.94 52.1094 189.956 52.625 192.127 52.625C194.299 52.625 196.307 52.1094 198.151 51.0781C200.01 50.0313 201.479 48.6172 202.557 46.8359C203.635 45.0547 204.174 43.125 204.174 41.0469ZM207.549 41.0469L207.549 22.25L209.237 22.25L209.237 41.0469C209.237 43.2969 208.784 45.4531 207.877 47.5156C206.971 49.5625 205.752 51.3281 204.221 52.8125C202.69 54.2969 200.87 55.4766 198.76 56.3516C196.651 57.2422 194.44 57.6875 192.127 57.6875C189.815 57.6875 187.604 57.2422 185.495 56.3516C183.385 55.4766 181.565 54.2969 180.034 52.8125C178.502 51.3281 177.284 49.5625 176.377 47.5156C175.471 45.4531 175.018 43.2969 175.018 41.0469L175.018 22.25H176.706L176.706 41.0469C176.706 43.7344 177.393 46.2266 178.768 48.5234C180.159 50.8203 182.034 52.6406 184.393 53.9844C186.768 55.3281 189.346 56 192.127 56C194.909 56 197.479 55.3281 199.838 53.9844C202.213 52.6406 204.088 50.8203 205.463 48.5234C206.854 46.2266 207.549 43.7344 207.549 41.0469Z" fill="#0891B2"/>
<path d="M235.952 27.7391L237.595 28.1267L229.843 60.9745L228.201 60.5869L235.952 27.7391ZM232.667 26.964L234.31 27.3516L226.558 60.1994L224.916 59.8118L232.667 26.964ZM229.383 26.1888L231.025 26.5764L223.274 59.4242L221.631 59.0366L229.383 26.1888ZM226.098 25.4137L227.74 25.8013L219.989 58.6491L218.346 58.2615L226.098 25.4137Z" fill="#0891B2"/>
<path d="M252.992 32.7269L254.529 33.4225L240.618 64.172L239.08 63.4764L252.992 32.7269ZM262.217 36.9004L263.754 37.5959L253.32 60.6581L264.659 65.7879L263.964 67.3254L252.625 62.1955L251.929 63.733L263.268 68.8629L262.573 70.4004L251.234 65.2705L250.538 66.808L261.877 71.9378L261.182 73.4753L248.305 67.6499L262.217 36.9004ZM259.142 35.5092L260.679 36.2048L246.768 66.9543L245.23 66.2587L259.142 35.5092ZM256.067 34.1181L257.604 34.8136L243.693 65.5631L242.155 64.8676L256.067 34.1181Z" fill="#0891B2"/>
<path d="M282.565 75.8481L291.248 65.5118C291.248 65.5118 293.635 67.5169 298.409 71.5272C299.736 72.6428 300.451 74.1001 300.552 75.899C300.665 77.708 300.128 79.3183 298.942 80.73C297.716 82.1895 296.208 83.0248 294.419 83.2357C292.629 83.4466 291.065 82.9892 289.725 81.8635L282.565 75.8481ZM284.942 75.6416L290.81 80.5715C291.779 81.3856 292.921 81.7022 294.236 81.5214C295.563 81.3507 296.689 80.715 297.614 79.6144C298.498 78.5616 298.91 77.3669 298.85 76.0303C298.801 74.7037 298.292 73.6333 297.323 72.8192L291.455 67.8893L284.942 75.6416ZM280.187 76.0547L288.639 83.1556C290.338 84.5828 292.319 85.1759 294.583 84.9348C296.857 84.6818 298.752 83.6521 300.27 81.8456C301.757 80.0751 302.419 78.0491 302.254 75.7678C302.101 73.4965 301.181 71.6523 299.494 70.2351L291.042 63.1342L280.187 76.0547ZM277.81 76.2612L290.835 60.7567L300.58 68.9431C302.625 70.6618 303.746 72.8989 303.941 75.6545C304.158 78.4082 303.377 80.8438 301.598 82.9613C299.779 85.1267 297.495 86.3509 294.747 86.634C292.009 86.9051 289.611 86.1763 287.554 84.4476L277.81 76.2612ZM275.432 76.4678L286.468 85.7396C288.047 87.0663 289.85 87.8968 291.875 88.231C293.9 88.5652 295.902 88.3691 297.879 87.6428C299.856 86.9165 301.539 85.7279 302.926 84.0769C304.283 82.4619 305.143 80.6238 305.508 78.5626C305.872 76.5015 305.709 74.4972 305.018 72.5499C304.35 70.6006 303.232 68.9677 301.665 67.651L290.629 58.3792L275.432 76.4678ZM273.054 76.6744L290.422 56.0016L302.751 66.359C304.557 67.8766 305.851 69.7494 306.632 71.9772C307.425 74.215 307.614 76.5164 307.199 78.8815C306.793 81.2345 305.812 83.3382 304.254 85.1926C302.676 87.0708 300.753 88.4245 298.485 89.2537C296.227 90.0709 293.927 90.2818 291.586 89.8863C289.257 89.5009 287.189 88.5494 285.383 87.0317L273.054 76.6744ZM270.677 76.8809L284.297 88.3237C286.343 90.0424 288.677 91.1261 291.3 91.5747C293.933 92.0113 296.524 91.7696 299.073 90.8495C301.633 89.9395 303.803 88.4257 305.582 86.3082C307.33 84.2266 308.427 81.8523 308.872 79.1852C309.339 76.5163 309.119 73.9237 308.213 71.4073C307.329 68.889 305.87 66.7756 303.836 65.0669L290.216 53.6241L270.677 76.8809ZM283.212 89.6158L268.299 77.0875L290.009 51.2466L304.921 63.7749C307.195 65.6845 308.825 68.0438 309.812 70.8525C310.821 73.6594 311.071 76.5432 310.563 79.5041C310.077 82.463 308.859 85.1029 306.91 87.4238C305.432 89.1825 303.673 90.5718 301.632 91.592C299.604 92.6222 297.522 93.23 295.386 93.4156C293.273 93.5992 291.14 93.3686 288.988 92.7238C286.836 92.079 284.911 91.043 283.212 89.6158Z" fill="#0891B2"/>
<path d="M305.506 113.788L304.58 112.377L332.799 93.8634L333.725 95.2743L305.506 113.788ZM303.655 110.966L302.729 109.555L330.948 91.0415L331.874 92.4524L303.655 110.966ZM301.803 108.144L300.878 106.733L329.097 88.2196L330.022 89.6305L301.803 108.144ZM314.412 111.981L323.27 125.483L321.859 126.409L313.001 112.907L311.59 113.833L320.448 127.335L319.037 128.26L310.179 114.758L308.768 115.684L317.627 129.186L316.216 130.112L306.432 115.199L334.651 96.6853L344.435 111.598L343.024 112.524L334.165 99.0219L332.754 99.9476L341.613 113.45L340.202 114.375L331.343 100.873L329.933 101.799L338.791 115.301L337.38 116.227L328.522 102.725L325.014 105.026L333.358 117.744L331.947 118.67L323.603 105.952L322.192 106.877L330.536 119.595L329.125 120.521L320.781 107.803L319.37 108.729L327.714 121.447L326.303 122.372L317.959 109.654L314.412 111.981Z" fill="#0891B2"/>
<path d="M339.738 145.83L342.638 155.58C343.022 156.868 343.751 157.84 344.827 158.498C345.903 159.156 347.175 159.267 348.643 158.83C349.721 158.509 350.547 157.75 351.12 156.553C351.697 155.37 351.805 154.173 351.444 152.959L347.314 139.077L323.052 146.295L322.571 144.678L348.45 136.978L353.062 152.478C353.556 154.141 353.405 155.767 352.606 157.358C351.812 158.963 350.652 159.993 349.124 160.448C347.222 161.014 345.522 160.859 344.023 159.985C342.538 159.106 341.538 157.798 341.021 156.061L338.12 146.311L339.738 145.83ZM336.503 146.793L339.404 156.542C340.045 158.699 341.329 160.33 343.256 161.436C345.183 162.542 347.299 162.751 349.605 162.065C351.567 161.481 353.056 160.183 354.07 158.169C355.1 156.151 355.303 154.094 354.679 151.997L349.586 134.879L322.09 143.06L321.609 141.443L350.722 132.781L356.297 151.516C357.054 154.062 356.808 156.548 355.557 158.974C354.321 161.396 352.498 162.965 350.087 163.683C347.391 164.485 344.859 164.219 342.489 162.886C340.125 161.569 338.557 159.614 337.786 157.023L334.885 147.274L336.503 146.793ZM333.268 147.755L336.169 157.505C336.761 159.496 337.789 161.196 339.251 162.603C340.713 164.01 342.447 164.961 344.452 165.457C346.463 165.967 348.501 165.915 350.568 165.3C352.44 164.743 354.043 163.72 355.377 162.231C356.726 160.737 357.63 158.985 358.091 156.973C358.557 154.976 358.498 152.996 357.914 151.034L351.858 130.682L321.127 139.826L320.646 138.208L352.995 128.583L359.532 150.553C360.035 152.246 360.182 153.971 359.971 155.729C359.78 157.497 359.3 159.116 358.53 160.583C357.775 162.047 356.744 163.348 355.437 164.487C354.129 165.626 352.667 166.436 351.049 166.917C348.428 167.697 345.959 167.78 343.64 167.166C341.337 166.547 339.375 165.378 337.755 163.659L330.004 169.658L329.489 167.928L336.643 162.303C336.388 161.939 336.113 161.507 335.817 161.008L329.014 166.333L328.5 164.604L335.053 159.426C334.87 158.975 334.703 158.495 334.551 157.986L328.032 163.031L327.524 161.324L334.05 156.301L333.616 154.841L327.056 159.751L326.548 158.044L333.101 153.111L331.65 148.236L333.268 147.755ZM324.015 149.53L323.534 147.913L346.178 141.175L349.827 153.441C350.076 154.279 350.034 155.066 349.698 155.802C349.378 156.533 348.866 157.003 348.162 157.213C346.155 157.81 344.853 157.105 344.256 155.098L341.355 145.349L342.972 144.868L345.873 154.617C346.15 155.546 346.752 155.872 347.68 155.595C347.935 155.52 348.11 155.313 348.205 154.975C348.319 154.647 348.321 154.296 348.21 153.922L345.041 143.274L324.015 149.53Z" fill="#0891B2"/>
<defs>
<filter id="filter0_dd_305_2" x="43" y="40" width="300" height="300" filterUnits="userSpaceOnUse" color-interpolation-filters="sRGB">
<feFlood flood-opacity="0" result="BackgroundImageFix"/>
<feColorMatrix in="SourceAlpha" type="matrix" values="0 0 0 0 0 0 0 0 0 0 0 0 0 0 0 0 0 0 127 0" result="hardAlpha"/>
<feOffset dx="-5" dy="-5"/>
<feGaussianBlur stdDeviation="10"/>
<feComposite in2="hardAlpha" operator="out"/>
<feColorMatrix type="matrix" values="0 0 0 0 0 0 0 0 0 0 0 0 0 0 0 0 0 0 0.7 0"/>
<feBlend mode="normal" in2="BackgroundImageFix" result="effect1_dropShadow_305_2"/>
<feColorMatrix in="SourceAlpha" type="matrix" values="0 0 0 0 0 0 0 0 0 0 0 0 0 0 0 0 0 0 127 0" result="hardAlpha"/>
<feOffset dx="5" dy="5"/>
<feGaussianBlur stdDeviation="10"/>
<feComposite in2="hardAlpha" operator="out"/>
<feColorMatrix type="matrix" values="0 0 0 0 0 0 0 0 0 0 0 0 0 0 0 0 0 0 0.1 0"/>
<feBlend mode="normal" in2="effect1_dropShadow_305_2" result="effect2_dropShadow_305_2"/>
<feBlend mode="normal" in="SourceGraphic" in2="effect2_dropShadow_305_2" result="shape"/>
</filter>
<clipPath id="clip0_305_2">
<rect width="191.918" height="179" fill="white" transform="translate(97 101)"/>
</clipPath>
</defs>
</svg>
